PathFileType	4	(X/Y/Z)	Walk9.trc
DataRate	CameraRate	NumFrames	NumMarkers	Units	OrigDataRate	OrigDataStartFrame	OrigNumFrames
200.000000	200.000000	5	56	mm	200.000000	389	502
Frame#	Times		RBHD		C7		RBack		RASI		RACR1		RUA1		RElbow		RFA1		RWRR		RCAR		LACR1		LElbow		LElbowM		LFA1		RTH1		RTH3		RTH2		RTH4		RLFC		RTB3		RTB2		RTB4		RMT1		RMT5		LTH3		LTH2		LWRU		LTH4		LPSI		CLAV		RPSI		LLFC		LTB1		LBHD		T10		LTB4		RWRU		LTB2		LMT1		LTH1		LWRR		LFHD		RFHD		LCAL		LLMAL		LMT5		RElbowM		LToe		LTB3		LMMAL		RCAL		RToe		LUA1		RLMAL		RMMAL		LCAR
			X1	Y1	Z1	X2	Y2	Z2	X3	Y3	Z3	X4	Y4	Z4	X5	Y5	Z5	X6	Y6	Z6	X7	Y7	Z7	X8	Y8	Z8	X9	Y9	Z9	X10	Y10	Z10	X11	Y11	Z11	X12	Y12	Z12	X13	Y13	Z13	X14	Y14	Z14	X15	Y15	Z15	X16	Y16	Z16	X17	Y17	Z17	X18	Y18	Z18	X19	Y19	Z19	X20	Y20	Z20	X21	Y21	Z21	X22	Y22	Z22	X23	Y23	Z23	X24	Y24	Z24	X25	Y25	Z25	X26	Y26	Z26	X27	Y27	Z27	X28	Y28	Z28	X29	Y29	Z29	X30	Y30	Z30	X31	Y31	Z31	X32	Y32	Z32	X33	Y33	Z33	X34	Y34	Z34	X35	Y35	Z35	X36	Y36	Z36	X37	Y37	Z37	X38	Y38	Z38	X39	Y39	Z39	X40	Y40	Z40	X41	Y41	Z41	X42	Y42	Z42	X43	Y43	Z43	X44	Y44	Z44	X45	Y45	Z45	X46	Y46	Z46	X47	Y47	Z47	X48	Y48	Z48	X49	Y49	Z49	X50	Y50	Z50	X51	Y51	Z51	X52	Y52	Z52	X53	Y53	Z53	X54	Y54	Z54	X55	Y55	Z55	X56	Y56	Z56

389	1.945	632.57	1565.8	381.15	598.54	1433.9	301.63	519.9	1342.2	388.02	677.47	929.38	422.08	656.59	1375.9	452.28	574.97	1191.5	521.35	502.67	1077.1	534.81	505.41	931.87	561.38	533.56	787.25	525.38	489.39	743.46	563.11	643.03	1427.7	126.96	569.39	1113.5	-8.1437	541.46	1107.1	70.388	697.84	1010.3	-21.957	662.93	731.59	477.29	745.16	561.65	458.15	763.21	678.31	439.8	704.13	646.78	472.13	785.21	472.8	441.58	898.78	214.67	375.59	858.61	305.86	442.91	875.99	309.56	372.64	1031.4	91.959	343.09	1005.7	81.602	424.03	581.51	558.37	104.13	663.97	635.73	133.65	720.54	893.71	-11.899	600.07	645.37	90.305	503.17	956.71	216.07	729.96	1350.3	288.81	498.29	953.67	320.63	540.42	444	119.91	549.82	347.34	183.13	612.64	1563.4	244.77	495.28	1127.3	272.44	510.77	263.18	191.75	462.47	805.96	551.82	488.14	267.35	123.37	532.91	34.032	246.25	620.47	740.69	83.336	779.18	935.33	28.161	794.94	1599.1	240.91	807.52	1606.5	321.27	320.53	41.188	218.58	376.17	78.65	172.91	502.75	30.871	156.19	485.7	1060.7	440.8	581.27	25.224	230.68	475.7	178.04	199.38	405.64	92.515	261.29	844.74	34.902	376.32	1068.8	118.46	370.76	602.16	1242	18.412	872.95	97.948	417.74	897.53	118.73	332.6	804.74	886.91	-17.583
390	1.95	638.94	1564.3	382.21	604.89	1432.8	302.68	526.13	1341.1	388.65	684.61	928.38	422.66	662.95	1374.6	453.2	580.35	1190.4	521.79	507.08	1076.4	534.61	508.82	931.24	561.35	536.03	786.15	524.64	491.08	742.91	562.76	649.77	1426.6	127.67	577.06	1112.5	-7.7231	548.46	1106.2	70.573	705.82	1010.2	-21.333	668.71	729.83	478.21	750.63	559.9	458.47	769.74	676.35	439.9	709.8	644.76	472.7	791.84	471.95	441.75	909.99	215.48	376.17	868.59	306.32	443.47	885.47	310.01	372.92	1045	95.03	343.28	1019.7	84.358	424.24	586.01	557.74	104.73	668.74	634.58	134.58	729.63	894	-11.688	605.17	644.57	91.068	510.07	955.19	216.92	736.38	1349.2	289.76	505.19	952.33	321.6	543.88	443.5	120.36	552.69	346.84	183.63	618.82	1562.1	245.75	501.72	1125.9	272.98	512.6	262.74	192.02	464.85	805.58	552.03	490.09	267.4	123.83	532.94	33.968	246.3	626.34	739.67	83.83	787.72	935.81	28.931	801.11	1598	242.12	813.82	1605.2	322.39	320.88	42.29	218.48	376.5	79.47	172.95	502.74	30.861	156.21	491.11	1060.1	440.73	581.37	25.11	230.85	477.04	177.96	199.57	406.19	93.004	261.23	859.13	34.983	377.51	1082.2	121.77	370.52	609.35	1241.2	18.998	886.79	98.635	418.97	910.15	119.6	333.41	813.86	887.56	-16.782
391	1.955	645.14	1563	383.51	611.2	1431.3	303.44	532.43	1339.7	389.26	691.72	927.38	423.35	669.03	1373.2	454.08	585.53	1189.3	522.31	511.84	1075.7	534.51	512.38	930.49	561.54	538.63	785.03	524.33	493.22	742.15	562.59	656.45	1425.7	128.57	584.39	1111.6	-7.3319	555.54	1105	70.937	713.83	1009.9	-20.756	674.99	728.14	478.76	756.38	558.04	458.76	775.32	674.37	440.27	715.84	643.21	472.94	798.9	471.24	441.96	920.73	216.31	376.43	878.29	306.49	444.04	894.62	310.17	373.35	1057.9	98.009	343.5	1032.9	86.634	424.4	590.3	557.1	105.37	673.59	633.38	135.49	738.58	893.92	-10.619	610.43	643.73	91.62	516.72	953.62	217.86	742.74	1348	290.57	512.06	950.81	322.57	547.14	443.2	121.07	555.58	346.27	184.1	625.08	1560.9	246.87	508.42	1124.7	273.6	514.91	262.61	192.23	467.72	805.26	552.07	492.23	267.49	124.22	532.93	33.92	246.29	632.11	738.59	84.487	796.43	936.21	29.561	807.47	1596.9	243.16	820.16	1603.9	323.5	320.87	43.684	218.27	377.02	80.441	172.97	502.77	30.826	156.23	496.36	1059.5	440.55	581.44	24.983	230.96	478.29	178.1	199.65	406.83	93.526	261.29	873.05	34.673	378.41	1094.7	125.09	370.28	616.54	1240.1	19.639	899.49	99.474	419.82	922.14	120.25	334.01	822.8	888.07	-15.865
392	1.96	651.39	1561.5	384.64	617.61	1430	304.08	538.82	1338.2	389.57	698.74	926.42	424.07	675.33	1371.8	454.95	590.9	1188.2	522.62	516.62	1075	534.59	516.19	929.75	561.67	541.64	784.03	524.01	495.93	741.29	562.39	663.21	1424.6	129.52	591.73	1110.5	-6.9889	563.43	1103.7	71.438	721.83	1009.7	-20.068	681.07	726.65	479.37	762.69	556.45	459.1	781.17	672.87	440.5	722.08	641.72	473.48	806.27	470.68	442.14	930.9	216.85	376.82	887.57	306.67	444.47	903.52	310.51	373.8	1069.7	100.68	343.66	1045.2	88.448	424.52	595.3	556.73	105.78	678.76	632.27	136.12	747.2	893.76	-10.175	615.55	643.08	92.201	523.24	952.19	218.67	749.44	1346.7	291.54	519.05	949.2	323.6	550.38	442.64	121.97	558.25	345.81	184.4	631.53	1559.8	248.02	515.13	1123.2	274.26	516.74	262.43	192.52	470.62	804.75	551.92	494.1	267.54	124.57	532.98	33.949	246.33	638.2	737.69	84.813	804.9	936.62	30.349	813.73	1595.8	244.57	826.32	1602.8	324.76	320.89	45.169	218.34	377.63	81.489	172.96	502.73	30.82	156.25	501.61	1058.7	440.24	581.44	24.858	231.05	479.59	178.16	199.7	407.36	94.082	261.36	885.66	34.338	378.51	1106.5	128.17	370.25	623.73	1238.8	20.338	911.4	99.965	420.21	933.87	120.89	334.26	831.61	888.57	-15.079
393	1.965	657.45	1560.2	385.78	624.02	1428.8	305.07	545.29	1336.9	390.11	705.7	925.37	424.66	681.65	1370.5	455.75	596.36	1187.1	523.12	521.59	1074.2	534.61	520.02	929.14	561.75	544.92	783.14	523.94	498.23	740.38	562.39	670.05	1423.5	130.34	599.15	1109.4	-6.5665	571.23	1102.4	71.889	729.8	1009.4	-19.565	687.53	725.25	480.07	769.61	555.28	459.32	787.42	671.61	440.79	728.87	640.29	474.37	813.61	469.9	442.63	940.45	217.19	377.25	896.79	306.56	444.91	912.4	310.59	374.07	1080.9	102.87	343.84	1056.3	90.071	424.27	599.93	556.5	106.32	684.08	631.15	136.68	755.87	893.77	-9.6111	620.66	642.29	92.901	530.1	950.39	219.79	756.01	1345.5	292.45	525.52	947.94	324.48	554.37	442.17	122.73	560.98	345.16	184.76	637.69	1558.4	249.09	521.74	1121.8	275.09	519.22	262.21	192.62	473.82	804.36	551.91	496.11	267.7	124.97	533.06	34.044	246.22	644.23	736.9	85.325	813.38	936.78	31.172	819.8	1594.7	245.78	832.57	1601.5	325.9	321.1	46.7	218.34	377.97	82.574	172.85	502.68	30.816	156.3	506.91	1058	440.02	581.42	24.795	231.07	480.9	178.21	199.95	407.89	94.755	261.39	897.64	33.897	378.22	1117.5	130.72	370.25	630.94	1237.8	21.23	922.49	100.09	420.43	944.77	121.5	334.32	840.42	889.08	-14.401
